<svg width="312" height="80" viewBox="0 0 312 80" fill="none" xmlns="http://www.w3.org/2000/svg">
<g clip-path="url(#clip0)">
<path d="M155.88 72.76C174.039 72.76 188.76 58.0391 188.76 39.88C188.76 21.7209 174.039 7 155.88 7C137.721 7 123 21.7209 123 39.88C123 58.0391 137.721 72.76 155.88 72.76Z" stroke="black" stroke-width="2" stroke-miterlimit="10"/>
<path d="M168.8 42.13L150.58 52.73C150.171 52.9614 149.71 53.083 149.24 53.083C148.77 53.083 148.309 52.9614 147.9 52.73C147.493 52.4949 147.155 52.1567 146.919 51.7495C146.684 51.3422 146.56 50.8803 146.56 50.41V29.41C146.544 28.9246 146.66 28.4439 146.896 28.0194C147.132 27.595 147.479 27.2426 147.9 27C148.307 26.7638 148.769 26.6394 149.24 26.6394C149.711 26.6394 150.173 26.7638 150.58 27L168.8 37.56C169.106 37.7344 169.375 37.9675 169.591 38.2459C169.807 38.5243 169.966 38.8426 170.059 39.1826C170.152 39.5226 170.177 39.8775 170.133 40.2271C170.088 40.5767 169.975 40.9141 169.8 41.22C169.559 41.6345 169.215 41.9792 168.8 42.22V42.13Z" stroke="black" stroke-width="2" stroke-miterlimit="10"/>
</g>
<defs>
<clipPath id="clip0">
<rect x="122" y="6" width="67.76" height="67.76" fill="white"/>
</clipPath>
</defs>
</svg>
