<svg width="312" height="80" viewBox="0 0 312 80" fill="none" xmlns="http://www.w3.org/2000/svg">
<path d="M158.61 8C164.872 8 170.877 10.4875 175.305 14.9152C179.733 19.3429 182.22 25.3482 182.22 31.61C182.22 50.61 158.61 78.04 158.61 78.04C158.61 78.04 135 50.58 135 31.61C135 25.3482 137.487 19.3429 141.915 14.9152C146.343 10.4875 152.348 8 158.61 8V8Z" stroke="black" stroke-width="2" stroke-miterlimit="10" stroke-linecap="round"/>
<path d="M158.61 40.23C163.84 40.23 168.08 35.9902 168.08 30.76C168.08 25.5299 163.84 21.29 158.61 21.29C153.38 21.29 149.14 25.5299 149.14 30.76C149.14 35.9902 153.38 40.23 158.61 40.23Z" stroke="black" stroke-width="2" stroke-miterlimit="10" stroke-linecap="round"/>
</svg>
