<svg width="312" height="83" viewBox="0 0 312 83" fill="none" xmlns="http://www.w3.org/2000/svg">
<path d="M172.013 35.9068C170.777 36.8704 169.542 37.9716 168.306 39.2105C161.442 46.0931 157.598 54.6275 156.5 63.5748C155.402 54.6275 151.558 45.9554 144.694 39.2105C143.458 37.9716 142.222 36.8704 140.987 35.9068C142.36 24.757 148.126 14.9838 156.5 8.37646C164.874 14.9838 170.64 24.757 172.013 35.9068Z" stroke="#111111" stroke-width="2" stroke-miterlimit="10" stroke-linecap="round" stroke-linejoin="round"/>
<path d="M156.5 73.3482C144.419 74.8624 131.789 70.8704 122.454 61.5101C113.119 52.1498 109.275 39.4858 110.647 27.3725C121.218 26.1336 132.201 29.0243 140.987 35.9069C142.223 36.8704 143.458 37.9717 144.694 39.2105C151.558 46.0931 155.402 54.6275 156.5 63.5749C156.912 66.7409 156.912 70.0445 156.5 73.3482Z" stroke="#111111" stroke-width="2" stroke-miterlimit="10" stroke-linecap="round" stroke-linejoin="round"/>
<path d="M190.546 61.5101C181.211 70.8704 168.581 74.7247 156.5 73.3481C156.088 70.0445 156.088 66.7409 156.5 63.4372C157.598 54.4898 161.442 45.9554 168.306 39.0728C169.542 37.834 170.778 36.7328 172.013 35.7692C180.799 28.8866 191.782 25.9959 202.353 27.2348C203.725 39.6234 199.882 52.2874 190.546 61.5101Z" stroke="#111111" stroke-width="2" stroke-miterlimit="10" stroke-linecap="round" stroke-linejoin="round"/>
</svg>
